<?xml version="1.0" ?><!DOCTYPE svg  PUBLIC '-//W3C//DTD SVG 1.1//EN'  'http://www.w3.org/Graphics/SVG/1.1/DTD/svg11.dtd'><svg enable-background="new 0 0 800 800" height="800px" id="Layer_1" version="1.1" viewBox="0 0 800 800" width="800px" xml:space="preserve" xmlns="http://www.w3.org/2000/svg" xmlns:cc="http://creativecommons.org/ns#" xmlns:dc="http://purl.org/dc/elements/1.1/" xmlns:inkscape="http://www.inkscape.org/namespaces/inkscape" xmlns:rdf="http://www.w3.org/1999/02/22-rdf-syntax-ns#" xmlns:sodipodi="http://sodipodi.sourceforge.net/DTD/sodipodi-0.dtd" xmlns:svg="http://www.w3.org/2000/svg" xmlns:xlink="http://www.w3.org/1999/xlink"><path d="M712.19,166.877c-0.044-0.044-0.073-0.103-0.103-0.147c-6.764-9.498-14.35-18.583-22.861-27.096  c-40.051-40.049-93.287-62.103-149.921-62.103c-51.753,0-100.682,18.422-139.29,52.15c-38.608-33.728-87.523-52.15-139.276-52.15  c-56.633,0-109.885,22.054-149.935,62.103c-82.671,82.671-82.671,217.19,0,299.858l278.566,278.565  c2.94,2.94,6.792,4.41,10.645,4.41c3.852,0,7.703-1.47,10.644-4.41l278.567-278.565C763.341,365.381,770.956,249.622,712.19,166.877  z M260.74,107.641c48.592,0,94.272,18.922,128.631,53.282c2.823,2.823,6.66,4.411,10.645,4.411c3.999,0,7.821-1.588,10.644-4.411  c34.36-34.359,80.04-53.282,128.646-53.282c48.592,0,94.271,18.922,128.631,53.282c4.146,4.146,7.983,8.469,11.645,12.879  L505.77,347.621c-0.015,0.015-0.015,0.015-0.029,0.03l-0.015,0.029l-105.71,105.691L294.32,347.694c0,0-0.015-0.03-0.029-0.044  c-0.015-0.015-0.03-0.03-0.044-0.03L120.45,173.816c3.661-4.425,7.513-8.748,11.645-12.894  C166.454,126.563,212.149,107.641,260.74,107.641z M103.13,199.075l159.227,159.219l-95.08,95.077l-35.183-35.168  C72.785,358.897,63.272,268.573,103.13,199.075z M400.016,686.124L188.566,474.66l95.08-95.077l105.725,105.721  c2.823,2.822,6.66,4.411,10.645,4.411c3.999,0,7.821-1.589,10.644-4.411l105.726-105.721l95.096,95.077L400.016,686.124z   M667.937,418.203l-35.168,35.168l-95.095-95.077L696.9,199.075C736.772,268.573,727.246,358.897,667.937,418.203z" fill="#FD808A"/></svg>